<?xml version="1.0" encoding="UTF-8" standalone="no"?>
<!-- Created with Inkscape (http://www.inkscape.org/) -->

<svg
   width="391.15094mm"
   height="380mm"
   viewBox="0 0 391.15094 380"
   version="1.1"
   id="svg5"
   inkscape:version="1.1.2 (b8e25be833, 2022-02-05)"
   sodipodi:docname="donut3.svg"
   xmlns:inkscape="http://www.inkscape.org/namespaces/inkscape"
   xmlns:sodipodi="http://sodipodi.sourceforge.net/DTD/sodipodi-0.dtd"
   xmlns="http://www.w3.org/2000/svg"
   xmlns:svg="http://www.w3.org/2000/svg">
  <sodipodi:namedview
     id="namedview7"
     pagecolor="#ffffff"
     bordercolor="#cccccc"
     borderopacity="1"
     inkscape:pageshadow="0"
     inkscape:pageopacity="1"
     inkscape:pagecheckerboard="0"
     inkscape:document-units="mm"
     showgrid="false"
     showguides="false"
     showborder="false"
     inkscape:zoom="0.65215217"
     inkscape:cx="494.51649"
     inkscape:cy="400.98004"
     inkscape:window-width="1920"
     inkscape:window-height="991"
     inkscape:window-x="-9"
     inkscape:window-y="-9"
     inkscape:window-maximized="1"
     inkscape:current-layer="layer1"
     fit-margin-top="0"
     fit-margin-left="0"
     fit-margin-right="0"
     fit-margin-bottom="0">
    <inkscape:grid
       type="xygrid"
       id="grid9"
       originx="697.08061"
       originy="347.65183" />
  </sodipodi:namedview>
  <defs
     id="defs2" />
  <g
     inkscape:label="Layer 1"
     inkscape:groupmode="layer"
     id="layer1"
     transform="translate(697.0806,347.65182)">
    <g
       id="g13832"
       transform="matrix(1.8999943,0,0,1.8999943,627.36863,312.8847)">
      <path
         id="path855"
         style="fill:#552200;fill-rule:evenodd;stroke-width:0.482891"
         d="m -594.15201,-341.77388 a 97.061217,97.061217 0 0 0 -97.06111,97.06131 97.061217,97.061217 0 0 0 97.06111,97.06132 97.061217,97.061217 0 0 0 97.06131,-97.06132 97.061217,97.061217 0 0 0 -97.06131,-97.06131 z m 0,63.08985 a 33.971426,33.971426 0 0 1 33.97146,33.97146 33.971426,33.971426 0 0 1 -33.97146,33.97146 33.971426,33.971426 0 0 1 -33.97146,-33.97146 33.971426,33.971426 0 0 1 33.97146,-33.97146 z" />
      <path
         id="path4877"
         style="color:#000000;fill:#f2f2f2;fill-opacity:1;fill-rule:evenodd;stroke-width:0.102723;stroke-linecap:round;stroke-linejoin:round;-inkscape-stroke:none"
         d="m -595.78069,-347.63911 c -15.80754,0.2517 -31.51569,4.18087 -45.56834,11.44841 -10e-4,5.1e-4 -0.002,10e-4 -0.003,0.002 -8.2e-4,4.1e-4 -0.002,8.3e-4 -0.002,10e-4 -13.46746,6.94564 -25.35227,16.87905 -34.5535,28.92939 -0.001,10e-4 -0.002,0.002 -0.003,0.003 v 6.1e-4 c -8.67813,11.34346 -14.96055,24.48321 -18.30277,38.37933 0,8.2e-4 3e-5,0.002 -10e-4,0.002 0,8.2e-4 2e-5,0.002 -10e-4,0.003 -1.97586,8.18093 -2.92742,16.59412 -2.862,24.99863 -0.0518,5.18737 0.48976,10.97588 2.37968,16.07858 0.9484,2.56064 2.24645,5.00152 4.30435,6.9958 2.05787,1.99429 5.06833,3.40431 8.27321,3.40431 2.88376,0 5.46658,-1.91913 6.74903,-3.7835 1.28246,-1.86437 1.92673,-3.80452 2.50147,-5.88892 1.14945,-4.16881 1.82946,-9.03035 2.82308,-13.69508 0.99361,-4.66473 2.34159,-9.05239 4.0714,-11.74093 1.72983,-2.68855 3.0775,-3.75516 6.3552,-3.70104 2.46566,0.0407 3.73042,1.03837 5.45817,3.88662 1.72775,2.84825 3.15754,7.34482 4.31096,12.05211 1.15342,4.70729 2.06016,9.57262 3.40291,13.70912 0.67137,2.06826 1.41095,3.9803 2.73219,5.77778 1.32124,1.79747 3.80461,3.64511 6.68683,3.65309 3.23802,0.009 6.30712,-1.38015 8.39401,-3.40591 2.08688,-2.02577 3.36579,-4.51387 4.27645,-7.10937 1.82131,-5.19099 2.22808,-11.06208 2.13251,-16.32555 a 4.853546,4.853546 0 0 0 -8.2e-4,-0.0345 c -0.0364,-1.43943 0.0339,-2.87079 0.21808,-4.27805 a 4.853546,4.853546 0 0 0 0.002,-0.0165 c 0.49529,-3.88816 1.81309,-7.66333 3.84048,-10.98114 a 4.853546,4.853546 0 0 0 0.01,-0.0159 c 1.97322,-3.25681 4.64198,-6.12879 7.73132,-8.31395 a 4.853546,4.853546 0 0 0 0.007,-0.005 c 4.29169,-3.04627 9.50867,-4.87416 14.7181,-5.14539 a 4.853546,4.853546 0 0 0 0.0287,-0.002 c 0.48942,-0.0284 1.00101,-0.0414 1.53322,-0.0445 5.12957,0.002 10.30034,1.45419 14.66513,4.14303 a 4.853546,4.853546 0 0 0 0.01,0.006 c 3.76036,2.30435 7.0737,5.61456 9.34599,9.40839 a 4.853546,4.853546 0 0 0 0.007,0.0108 c 2.3745,3.94115 3.77404,8.45803 4.0056,13.01976 a 4.853546,4.853546 0 0 0 6.1e-4,0.0126 c 0.003,0.0595 0.01,0.12978 0.0135,0.18518 3.1e-4,-9.2e-4 6.1e-4,-0.003 10e-4,-0.003 5e-5,0.004 -2e-4,0.008 -2e-4,0.0118 0.003,0.0537 0.007,0.11039 0.013,0.17856 -0.004,-0.0215 -0.0132,-0.0563 -0.015,-0.073 0.02,3.70146 -1.09604,8.71293 -0.0175,14.07267 0.55115,2.73882 2.02631,5.79839 4.79067,7.79532 2.76436,1.99693 6.30375,2.80221 10.53494,2.80221 3.26049,0 6.42206,-1.78955 8.2046,-4.09949 1.78255,-2.30995 2.64581,-4.92103 3.28835,-7.69461 1.28508,-5.54716 1.54717,-12.04469 2.05586,-18.3441 0.50869,-6.29941 1.30889,-12.36529 2.8279,-16.10145 0.7595,-1.86807 1.63478,-3.07181 2.46576,-3.73595 0.83097,-0.66414 1.63524,-1.01764 3.35194,-0.97466 0.90378,0.0226 1.23125,0.16039 2.11806,1.27621 0.88681,1.11582 1.91552,3.28767 2.72277,6.18024 1.61449,5.78515 2.44833,14.23951 3.10938,22.78567 0.66105,8.54616 1.16626,17.17833 2.57791,24.14535 0.70582,3.48352 1.57816,6.57296 3.25383,9.28361 1.67567,2.71064 4.96831,5.22274 8.68572,5.12813 4.84191,-0.12323 8.2688,-3.83325 10.08472,-7.51524 1.81593,-3.682 2.77972,-7.95916 3.45507,-12.41004 1.33374,-8.78999 1.33509,-18.25856 1.36068,-22.70181 -6.1e-4,-0.001 0.003,-0.0442 0.003,-0.0514 0.001,-0.0658 0.002,-0.12408 0.002,-0.18217 8.2e-4,-0.11619 0.0106,0.0649 -0.002,-0.37739 -8.2e-4,-0.0276 -8.2e-4,-0.0562 -0.007,-0.15629 -0.003,-0.0471 -0.006,-0.11208 -0.0239,-0.26664 -0.33264,-14.6485 -3.80626,-29.19787 -10.19467,-42.39917 -6.5334,-13.55252 -16.05501,-25.62597 -27.74307,-35.11485 -11.35287,-9.23859 -24.66898,-16.01871 -38.84118,-19.72144 -9.04313,-2.37114 -18.40097,-3.50475 -27.74988,-3.36097 a 4.853546,4.853546 0 0 0 -0.003,0 z" />
      <path
         id="path1050"
         style="fill:#ffffff;fill-opacity:1;fill-rule:evenodd;stroke-width:0.482891"
         d="m -595.70345,-342.78665 c -15.05503,0.23972 -30.0458,3.9909 -43.42138,10.90932 -12.82806,6.61491 -24.16951,16.0952 -32.92878,27.56791 -8.26772,10.8059 -14.26136,23.34379 -17.44267,36.57385 -1.88442,7.80058 -2.7931,15.83411 -2.72798,23.85925 -0.1034,9.55368 2.27631,21.63046 10.10467,21.63046 8.99515,0 3.01678,-39.13188 22.5802,-38.8089 17.17417,0.28353 13.72488,39.05388 22.5244,39.07823 8.11289,0.0224 10.11506,-12.1067 9.93725,-21.89979 -0.0424,-1.67854 0.0392,-3.36129 0.25761,-5.03042 0.58145,-4.56454 2.12204,-8.9846 4.5136,-12.89838 2.31988,-3.82896 5.43428,-7.18291 9.07956,-9.7613 5.04808,-3.58317 11.1159,-5.71373 17.27474,-6.03438 0.60021,-0.0348 1.20129,-0.0499 1.80247,-0.0532 6.03881,2.1e-4 12.0694,1.69012 17.22237,4.8645 4.43075,2.71517 8.27994,6.55503 10.97372,11.05257 2.7828,4.61883 4.42232,9.89527 4.69557,15.27826 0.0458,0.85936 0.0448,-0.65084 0.0225,0.2106 0.17792,9.01384 -3.972,20.16422 10.45162,20.16422 14.91807,0 0.87394,-51.48538 22.31588,-50.94862 18.97977,0.47512 7.39261,69.17656 22.22287,68.79913 10.13037,-0.25782 10.1187,-29.20874 10.1726,-38.01473 0.006,-0.80856 0.005,0.75445 -0.009,-0.0541 -0.23027,-14.16413 -3.55943,-28.27282 -9.73081,-41.02565 -6.22148,-12.90796 -15.30743,-24.42858 -26.43355,-33.46125 -10.81335,-8.80057 -23.51914,-15.26921 -37.00921,-18.79372 -8.61658,-2.25968 -17.54041,-3.34087 -26.4484,-3.20388 z"
         sodipodi:nodetypes="cccccsssccccccccccssscccccc" />
      <path
         id="path10399"
         style="opacity:0.306189;fill:#ffffff;fill-rule:evenodd;stroke-width:0.482891"
         d="m -528.58994,-272.18095 c -1.7167,-0.043 -2.52097,0.31052 -3.35194,0.97466 -0.83098,0.66414 -1.70626,1.86788 -2.46576,3.73595 -1.51901,3.73616 -2.31921,9.80204 -2.8279,16.10145 -0.50868,6.29941 -0.77078,12.79694 -2.05586,18.3441 -0.64254,2.77358 -1.5058,5.38466 -3.28835,7.69461 -0.60713,0.78676 -1.37698,1.51041 -2.25348,2.12629 -1.77193,4.02845 -4.01313,7.85308 -6.68864,11.34007 -3.76401,4.91183 -8.38966,9.19869 -13.62627,12.52479 -5.85706,3.74059 -12.46606,6.30312 -19.27322,7.55477 -6.74869,1.24335 -13.73548,1.20967 -20.46798,-0.17395 -11.36796,-2.31538 -21.96102,-8.4366 -29.63863,-17.1676 -2.48225,-2.81433 -4.63251,-5.90939 -6.47176,-9.18168 -1.12661,-0.6844 -2.0638,-1.58197 -2.71594,-2.46917 -1.32124,-1.79747 -2.06083,-3.70952 -2.7322,-5.77777 -1.34274,-4.13651 -2.24948,-9.00184 -3.4029,-13.70913 -1.15342,-4.70729 -2.58321,-9.20385 -4.31096,-12.05211 -1.72775,-2.84825 -2.99251,-3.84592 -5.45817,-3.88662 -3.2777,-0.0541 -4.62537,1.0125 -6.35519,3.70104 -1.72982,2.68854 -3.07779,7.0762 -4.0714,11.74093 -0.25775,1.21003 -0.49407,2.43251 -0.72328,3.65349 0.91184,9.1668 3.43136,18.17416 7.52888,26.42854 5.54418,11.24734 13.84826,21.13895 24.04684,28.44728 10.23506,7.37845 22.29707,12.22014 34.8117,13.86942 11.64032,1.55867 23.63832,0.43752 34.76756,-3.31863 9.33269,-3.12749 18.04505,-8.08057 25.51887,-14.48557 7.74086,-6.61486 14.17758,-14.76411 18.73754,-23.87209 2.61764,-5.20385 4.6287,-10.70899 6.01814,-16.36628 -0.54066,-4.93588 -0.89077,-10.25064 -1.29949,-15.53467 -0.66105,-8.54616 -1.49489,-17.00052 -3.10938,-22.78567 -0.80725,-2.89257 -1.83596,-5.06442 -2.72277,-6.18024 -0.88681,-1.11582 -1.21428,-1.25359 -2.11806,-1.27621 z" />
      <path
         id="path10540"
         style="opacity:0.954397;fill:#f2f2f2;fill-rule:evenodd;stroke-width:0.482891"
         d="m -593.81812,-321.7569 c -0.67494,-0.004 -1.35011,10e-4 -2.02497,0.0144 -12.95696,0.34699 -25.84636,3.90031 -37.04954,10.44425 -12.79755,7.46728 -23.41865,18.6631 -30.05494,31.92322 -3.39734,6.76211 -5.79308,14.02682 -7.09331,21.48137 0.57012,-0.67876 1.18908,-1.3163 1.87289,-1.89115 3.2712,-2.70226 7.91497,-3.61945 11.97045,-2.38049 1.75479,0.52941 3.36567,1.50097 4.66869,2.78777 1.83483,1.7493 3.17616,3.91587 4.24836,6.20211 0.43111,-2.76957 1.06803,-5.50683 1.9373,-8.17732 1.66654,-5.11476 4.14496,-10.01671 7.25442,-14.41113 4.39604,-6.23177 10.12385,-11.56268 16.73765,-15.38259 8.19504,-4.75916 17.61994,-7.30379 27.05349,-7.4705 16.35069,-0.0225 32.57072,7.81597 42.62388,20.76311 3.99902,5.14197 7.00449,11.02035 8.92066,17.23802 0.43032,-2.71956 0.96535,-5.43542 1.85965,-8.0441 0.88512,-2.52918 2.14317,-4.9977 4.07522,-6.89027 1.74088,-1.68704 4.04319,-2.79319 6.46012,-3.03716 1.97998,-0.25815 4.08562,-0.005 5.8514,0.9518 -0.60712,-1.2861 -1.24181,-2.55927 -1.92144,-3.80918 -6.24358,-11.50436 -15.46832,-21.37112 -26.52684,-28.37546 -10.42742,-6.63099 -22.48636,-10.64219 -34.79646,-11.66549 -2.01768,-0.17123 -4.04184,-0.26002 -6.06668,-0.27126 z" />
      <rect
         style="fill:#ff0091;fill-opacity:1;stroke:none;stroke-width:9.70612;stroke-linecap:round;stroke-linejoin:round;stroke-miterlimit:4;stroke-dasharray:none;stroke-opacity:1"
         id="rect10922"
         width="20.456074"
         height="5.6205182"
         x="-459.8089"
         y="-467.72775"
         ry="2.8102591"
         transform="rotate(-17.96269)"
         inkscape:transform-center-x="-54.215753"
         inkscape:transform-center-y="12.98124" />
      <rect
         style="fill:#00d7ff;fill-opacity:1;stroke:none;stroke-width:9.70612;stroke-linecap:round;stroke-linejoin:round;stroke-miterlimit:4;stroke-dasharray:none;stroke-opacity:1"
         id="rect10924"
         width="20.456074"
         height="5.6205182"
         x="-449.54559"
         y="-428.24838"
         ry="2.8102591"
         transform="rotate(-17.96269)"
         inkscape:transform-center-x="-54.215756"
         inkscape:transform-center-y="12.981237" />
      <rect
         style="fill:#ffff00;fill-opacity:1;stroke:none;stroke-width:9.70612;stroke-linecap:round;stroke-linejoin:round;stroke-miterlimit:4;stroke-dasharray:none;stroke-opacity:1"
         id="rect10926"
         width="20.456074"
         height="5.6205182"
         x="-432.45352"
         y="-458.85916"
         ry="2.8102591"
         transform="rotate(-17.96269)"
         inkscape:transform-center-x="-54.215756"
         inkscape:transform-center-y="12.981237" />
      <rect
         style="fill:#ffff00;fill-opacity:1;stroke:none;stroke-width:9.70612;stroke-linecap:round;stroke-linejoin:round;stroke-miterlimit:4;stroke-dasharray:none;stroke-opacity:1"
         id="rect10928"
         width="20.456074"
         height="5.6205182"
         x="-496.59586"
         y="-481.88309"
         ry="2.8102591"
         transform="rotate(-17.96269)"
         inkscape:transform-center-x="-54.21575"
         inkscape:transform-center-y="12.981235" />
      <rect
         style="fill:#ff0091;fill-opacity:1;stroke:none;stroke-width:9.70612;stroke-linecap:round;stroke-linejoin:round;stroke-miterlimit:4;stroke-dasharray:none;stroke-opacity:1"
         id="rect10930"
         width="20.456074"
         height="5.6205182"
         x="-550.49384"
         y="-482.16837"
         ry="2.8102591"
         transform="rotate(-17.96269)"
         inkscape:transform-center-x="-54.21575"
         inkscape:transform-center-y="12.98124" />
      <rect
         style="fill:#00d7ff;fill-opacity:1;stroke:none;stroke-width:9.70612;stroke-linecap:round;stroke-linejoin:round;stroke-miterlimit:4;stroke-dasharray:none;stroke-opacity:1"
         id="rect10932"
         width="20.456074"
         height="5.6205182"
         x="-571.18518"
         y="-467.37225"
         ry="2.8102591"
         transform="rotate(-17.96269)"
         inkscape:transform-center-x="-54.215756"
         inkscape:transform-center-y="12.981237" />
      <rect
         style="fill:#ffff00;fill-opacity:1;stroke:none;stroke-width:9.70612;stroke-linecap:round;stroke-linejoin:round;stroke-miterlimit:4;stroke-dasharray:none;stroke-opacity:1"
         id="rect10934"
         width="20.456074"
         height="5.6205182"
         x="-537.65173"
         y="-440.45474"
         ry="2.8102591"
         transform="rotate(-17.96269)"
         inkscape:transform-center-x="-54.215756"
         inkscape:transform-center-y="12.981237" />
      <rect
         style="fill:#ffff00;fill-opacity:1;stroke:none;stroke-width:9.70612;stroke-linecap:round;stroke-linejoin:round;stroke-miterlimit:4;stroke-dasharray:none;stroke-opacity:1"
         id="rect10936"
         width="20.456074"
         height="5.6205182"
         x="-417.84857"
         y="-391.70679"
         ry="2.8102591"
         transform="rotate(-17.96269)"
         inkscape:transform-center-x="-54.215756"
         inkscape:transform-center-y="12.981237" />
      <rect
         style="fill:#ff0091;fill-opacity:1;stroke:none;stroke-width:9.70612;stroke-linecap:round;stroke-linejoin:round;stroke-miterlimit:4;stroke-dasharray:none;stroke-opacity:1"
         id="rect10938"
         width="20.456074"
         height="5.6205182"
         x="-592.65118"
         y="25.255545"
         ry="2.8102591"
         transform="rotate(30.875785)"
         inkscape:transform-center-x="-25.910932"
         inkscape:transform-center-y="49.360758" />
      <rect
         style="fill:#ff0091;fill-opacity:1;stroke:none;stroke-width:9.70612;stroke-linecap:round;stroke-linejoin:round;stroke-miterlimit:4;stroke-dasharray:none;stroke-opacity:1"
         id="rect10940"
         width="20.456074"
         height="5.6205182"
         x="-636.07422"
         y="38.594032"
         ry="2.8102591"
         transform="rotate(30.875785)"
         inkscape:transform-center-x="-25.910932"
         inkscape:transform-center-y="49.360758" />
      <rect
         style="fill:#ff0091;fill-opacity:1;stroke:none;stroke-width:9.70612;stroke-linecap:round;stroke-linejoin:round;stroke-miterlimit:4;stroke-dasharray:none;stroke-opacity:1"
         id="rect10942"
         width="20.456074"
         height="5.6205182"
         x="-673.42065"
         y="60.096104"
         ry="2.8102591"
         transform="rotate(30.875785)"
         inkscape:transform-center-x="-25.910932"
         inkscape:transform-center-y="49.360758" />
      <rect
         style="fill:#00d7ff;fill-opacity:1;stroke:none;stroke-width:9.70612;stroke-linecap:round;stroke-linejoin:round;stroke-miterlimit:4;stroke-dasharray:none;stroke-opacity:1"
         id="rect10944"
         width="20.456074"
         height="5.6205182"
         x="367.77771"
         y="532.38593"
         ry="2.8102591"
         transform="rotate(154.44347)"
         inkscape:transform-center-x="55.455749"
         inkscape:transform-center-y="-5.7027817" />
      <rect
         style="fill:#00d7ff;fill-opacity:1;stroke:none;stroke-width:9.70612;stroke-linecap:round;stroke-linejoin:round;stroke-miterlimit:4;stroke-dasharray:none;stroke-opacity:1"
         id="rect10946"
         width="20.456074"
         height="5.6205182"
         x="-697.1084"
         y="86.140518"
         ry="2.8102591"
         transform="rotate(30.875785)"
         inkscape:transform-center-x="-25.910932"
         inkscape:transform-center-y="49.360758" />
      <rect
         style="fill:#ff0091;fill-opacity:1;stroke:none;stroke-width:9.70612;stroke-linecap:round;stroke-linejoin:round;stroke-miterlimit:4;stroke-dasharray:none;stroke-opacity:1"
         id="rect10948"
         width="20.456074"
         height="5.6205182"
         x="-708.28766"
         y="43.336361"
         ry="2.8102591"
         transform="rotate(30.875785)"
         inkscape:transform-center-x="-25.910936"
         inkscape:transform-center-y="49.360757" />
      <rect
         style="fill:#ffff00;fill-opacity:1;stroke:none;stroke-width:9.70612;stroke-linecap:round;stroke-linejoin:round;stroke-miterlimit:4;stroke-dasharray:none;stroke-opacity:1"
         id="rect10950"
         width="20.456074"
         height="5.6205182"
         x="-723.25378"
         y="64.08152"
         ry="2.8102591"
         transform="rotate(30.875785)"
         inkscape:transform-center-x="-25.91092"
         inkscape:transform-center-y="49.360751" />
      <rect
         style="fill:#ff0091;fill-opacity:1;stroke:none;stroke-width:9.70612;stroke-linecap:round;stroke-linejoin:round;stroke-miterlimit:4;stroke-dasharray:none;stroke-opacity:1"
         id="rect10706"
         width="20.456074"
         height="5.6205182"
         x="121.61934"
         y="662.37073"
         ry="2.8102591"
         transform="rotate(129.48703)"
         inkscape:transform-center-x="52.68395"
         inkscape:transform-center-y="18.228075" />
    </g>
  </g>
</svg>
