<?xml version="1.0" encoding="UTF-8" standalone="no"?>
<!-- Created with Inkscape (http://www.inkscape.org/) -->

<svg
   width="391.14981"
   height="380"
   viewBox="0 0 103.49172 100.54167"
   version="1.1"
   id="svg5"
   inkscape:version="1.1.2 (b8e25be833, 2022-02-05)"
   sodipodi:docname="donut1.svg"
   xmlns:inkscape="http://www.inkscape.org/namespaces/inkscape"
   xmlns:sodipodi="http://sodipodi.sourceforge.net/DTD/sodipodi-0.dtd"
   xmlns="http://www.w3.org/2000/svg"
   xmlns:svg="http://www.w3.org/2000/svg">
  <sodipodi:namedview
     id="namedview7"
     pagecolor="#ffffff"
     bordercolor="#cccccc"
     borderopacity="1"
     inkscape:pageshadow="0"
     inkscape:pageopacity="1"
     inkscape:pagecheckerboard="0"
     inkscape:document-units="mm"
     showgrid="false"
     showguides="false"
     showborder="false"
     inkscape:zoom="0.15654532"
     inkscape:cx="1089.1415"
     inkscape:cy="1248.8396"
     inkscape:window-width="1920"
     inkscape:window-height="991"
     inkscape:window-x="-9"
     inkscape:window-y="-9"
     inkscape:window-maximized="1"
     inkscape:current-layer="layer1"
     units="px"
     fit-margin-top="0"
     fit-margin-left="0"
     fit-margin-right="0"
     fit-margin-bottom="0">
    <inkscape:grid
       type="xygrid"
       id="grid9"
       originx="697.08064"
       originy="347.65128" />
  </sodipodi:namedview>
  <defs
     id="defs2" />
  <g
     inkscape:label="Layer 1"
     inkscape:groupmode="layer"
     id="layer1"
     transform="translate(697.08066,347.65126)">
    <g
       id="g12053"
       transform="matrix(0.19517393,0,0,0.19517393,-621.72496,-324.99113)">
      <path
         id="path855"
         style="opacity:1;fill:#ffb380;fill-rule:evenodd;stroke-width:1.24378"
         d="M -120.98238,-100.96391 A 250,250 0 0 0 -370.9821,149.03633 250,250 0 0 0 -120.98238,399.03658 250,250 0 0 0 129.01786,149.03633 250,250 0 0 0 -120.98238,-100.96391 Z m 0,162.500156 a 87.499999,87.499999 0 0 1 87.500087,87.500084 87.499999,87.499999 0 0 1 -87.500087,87.50008 87.499999,87.499999 0 0 1 -87.50008,-87.50008 87.499999,87.499999 0 0 1 87.50008,-87.500084 z" />
      <path
         id="path4877"
         style="color:#000000;fill:#584444;fill-opacity:1;fill-rule:evenodd;stroke-linecap:round;stroke-linejoin:round;-inkscape-stroke:none"
         d="m -473.11133,-438.69336 c -153.88492,2.45032 -306.80232,40.70034 -443.60351,111.44922 -0.01,0.005 -0.0195,0.0106 -0.0293,0.0156 -0.008,0.004 -0.0157,0.008 -0.0234,0.0117 -131.10446,67.61522 -246.80196,164.31601 -336.37506,281.625003 -0.01,0.01107 -0.017,0.02214 -0.025,0.0332 v 0.0059 c -84.4808,110.427476 -145.6396,238.341777 -178.1758,373.619147 0,0.008 3e-4,0.0156 -0.01,0.0234 0,0.008 2e-4,0.017 -0.01,0.0254 -19.2348,79.6406 -28.4981,161.54226 -27.8613,243.35938 -0.5041,50.49856 4.7678,106.84912 23.166,156.52344 9.2326,24.9276 21.869,48.68938 41.9024,68.10351 20.0332,19.41414 49.3398,33.14063 80.539,33.14063 28.0731,0 53.2166,-18.68259 65.7012,-36.83203 12.4846,-18.14945 18.7565,-37.03664 24.3515,-57.32813 11.1898,-40.58297 17.8097,-87.90956 27.4825,-133.32031 9.6727,-45.41075 22.7951,-88.12416 39.6347,-114.29688 16.8397,-26.17271 29.9591,-36.55607 61.8672,-36.02929 24.003,0.39627 36.3153,10.10847 53.1348,37.83593 16.8195,27.72747 30.7384,71.50115 41.96682,117.32618 11.22843,45.82502 20.05548,93.18851 33.12696,133.45703 6.53574,20.13426 13.73552,38.74785 26.59765,56.24609 12.86213,17.49824 37.03756,35.48485 65.09571,35.5625 31.5218,0.0872 61.39919,-13.43565 81.71484,-33.15625 20.31564,-19.7206 32.76569,-43.94208 41.63086,-69.20898 17.73032,-50.53381 21.69012,-107.68835 20.75977,-158.92774 a 47.248818,47.248818 0 0 0 -0.008,-0.33593 c -0.3543,-14.01274 0.33028,-27.94692 2.12305,-41.64649 a 47.248818,47.248818 0 0 0 0.0215,-0.16016 c 4.82155,-37.85089 17.65029,-74.60179 37.38672,-106.90039 a 47.248818,47.248818 0 0 0 0.0937,-0.15429 c 19.20917,-31.70479 45.18924,-59.66327 75.26367,-80.93555 a 47.248818,47.248818 0 0 0 0.0645,-0.0449 c 41.77919,-29.65518 92.56603,-47.4495 143.2793,-50.08985 a 47.248818,47.248818 0 0 0 0.27929,-0.0156 c 4.76444,-0.27633 9.7448,-0.40336 14.92578,-0.43359 49.93588,0.0238 100.2728,14.15641 142.76367,40.33203 a 47.248818,47.248818 0 0 0 0.0938,0.0566 c 36.6068,22.4327 68.86182,54.65725 90.98242,91.58984 a 47.248818,47.248818 0 0 0 0.0644,0.10547 c 23.11555,38.36667 36.73994,82.33808 38.99414,126.74609 a 47.248818,47.248818 0 0 0 0.006,0.12305 c 0.0309,0.57901 0.0972,1.26345 0.13086,1.80274 0.003,-0.009 0.006,-0.0245 0.01,-0.0332 4.3e-4,0.037 -0.002,0.0782 -0.002,0.11524 0.0331,0.52256 0.0671,1.07466 0.12696,1.73828 -0.0363,-0.20955 -0.12886,-0.54759 -0.14649,-0.71094 0.19444,36.0334 -10.66986,84.81951 -0.16992,136.99609 5.36546,26.66224 19.72592,56.44678 46.63672,75.88672 26.9108,19.43995 61.366398,27.2793 102.556638,27.2793 31.7406592,0 62.51821,-17.42107 79.871094,-39.9082 C 62.147896,729.48551 70.551655,704.06694 76.806731,677.0664 89.316882,623.06531 91.868359,559.81247 96.820402,498.48827 101.77244,437.16408 109.56226,378.11328 124.3497,341.74218 c 7.39371,-18.18555 15.91442,-29.90379 24.00391,-36.36914 8.08949,-6.46536 15.91896,-9.90663 32.63086,-9.48828 8.79818,0.22024 11.98613,1.56141 20.61914,12.42382 8.63301,10.86242 18.6474,32.00513 26.50586,60.16407 15.71692,56.31788 23.83429,138.62031 30.26953,221.8164 6.43525,83.19609 11.35343,167.22941 25.0957,235.05274 6.87113,33.91166 15.36325,63.98715 31.67578,90.375 16.31252,26.38784 48.36599,50.84289 84.55469,49.92187 47.13553,-1.19961 80.49599,-37.31627 98.17383,-73.16015 17.67784,-35.84388 27.06032,-77.48169 33.63476,-120.81055 12.9838,-85.56975 12.99698,-177.74541 13.2461,-221 -0.006,-0.0142 0.0261,-0.42985 0.0273,-0.5 0.0109,-0.64037 0.0177,-1.2079 0.0215,-1.77344 0.008,-1.13107 0.10302,0.63197 -0.0176,-3.67383 -0.008,-0.26911 -0.008,-0.54698 -0.0664,-1.52148 -0.0274,-0.4583 -0.0595,-1.09106 -0.23242,-2.5957 C 541.25396,398.00169 507.43862,256.36496 445.24805,127.85156 381.64604,-4.0809586 288.95408,-121.61492 175.17188,-213.98828 64.652708,-303.92501 -64.978352,-369.9289 -202.94336,-405.97461 c -88.03411,-23.08286 -179.13182,-34.1184 -270.14258,-32.71875 a 47.248818,47.248818 0 0 0 -0.0254,0 z"
         transform="scale(0.26458333)" />
      <path
         id="path1050"
         style="opacity:1;fill:#6c5353;fill-rule:evenodd;stroke-width:4.7009"
         d="m -472.35938,-391.45508 c -146.55934,2.33367 -292.49303,38.85099 -422.70312,106.20117 -124.8799,64.39553 -235.2879,156.68524 -320.5586,268.371098 -80.4855,105.194357 -138.833,227.249572 -169.8027,356.042972 -18.3447,75.93793 -27.1906,154.14362 -26.5567,232.26757 -1.0066,93.00424 22.1597,210.57052 98.368,210.57052 87.567,0 29.3681,-380.94518 219.8162,-377.80102 167.18891,2.76017 133.61038,380.18588 219.27295,380.42294 78.97824,0.21857 98.46918,-117.85759 96.73819,-213.19244 -0.41315,-16.34045 0.38145,-32.72183 2.50782,-48.9707 5.66029,-44.43534 20.65786,-87.46421 43.93945,-125.56445 22.58377,-37.27458 52.90216,-69.92504 88.38867,-95.02539 49.14259,-34.88178 108.21223,-55.62259 168.16797,-58.74414 5.843,-0.33888 11.6945,-0.48564 17.54687,-0.51758 58.78723,0.002 117.49451,16.45318 167.65821,47.35547 43.13292,26.43191 80.60443,63.81259 106.82812,107.5957 27.0903,44.96387 43.05091,96.3295 45.71094,148.73242 0.44628,8.36584 0.43585,-6.33583 0.21875,2.05023 1.73198,87.74889 -38.66711,196.29682 101.745558,196.29682 145.226032,0 8.507674,-501.20538 217.242952,-495.9801 184.76631,4.62526 71.96645,673.4274 216.33756,669.75311 98.61823,-2.50986 98.5046,-284.34439 99.0294,-370.06983 0.0629,-7.87133 0.0499,7.34449 -0.0859,-0.52679 C 495.20957,409.92604 462.80051,272.5792 402.72266,148.43164 342.15717,22.773842 253.70632,-89.378311 145.39453,-177.31055 40.127617,-262.98321 -83.562079,-325.95482 -214.88672,-360.26562 c -83.88157,-21.99783 -170.75423,-32.5231 -257.47266,-31.18946 z"
         transform="scale(0.26458333)"
         sodipodi:nodetypes="cccccsssccccccccccssscccccc" />
      <path
         id="path10399"
         style="opacity:0.306189;fill:#ffffff;fill-rule:evenodd;stroke-width:4.7009"
         d="m 180.98438,295.88477 c -16.7119,-0.41835 -24.54137,3.02292 -32.63086,9.48828 -8.08949,6.46535 -16.6102,18.18359 -24.00391,36.36914 -14.78744,36.3711 -22.57726,95.4219 -27.529298,156.74609 -4.952042,61.3242 -7.503521,124.57704 -20.013671,178.57813 -6.255076,27.00054 -14.658835,52.41911 -32.011719,74.90625 -5.91037,7.65908 -13.404788,14.7037 -21.9375,20.69922 -17.2495072,39.21659 -39.067364,76.44904 -65.113281,110.39453 -36.642206,47.8162 -81.672531,89.54844 -132.650391,121.92769 -57.01801,36.4143 -121.35597,61.3603 -187.62305,73.545 -65.69783,12.1039 -133.71357,11.776 -199.2539,-1.6934 -110.66601,-22.54 -213.78846,-82.12954 -288.5293,-167.125 -24.16446,-27.3972 -45.09705,-57.52737 -63.00195,-89.38281 -10.96743,-6.66254 -20.09092,-15.40026 -26.43946,-24.03711 -12.86213,-17.49824 -20.06191,-36.11183 -26.59765,-56.24609 -13.07148,-40.26852 -21.89853,-87.63201 -33.12696,-133.45703 -11.22838,-45.82503 -25.14728,-89.59871 -41.96678,-117.32618 -16.8195,-27.72746 -29.1318,-37.43966 -53.1348,-37.83593 -31.9081,-0.52678 -45.0275,9.85658 -61.8672,36.02929 -16.8396,26.17272 -29.962,68.88613 -39.6347,114.29688 -2.5091,11.77947 -4.8097,23.68025 -7.041,35.5664 8.8767,89.23791 33.404,176.92373 73.2929,257.2793 53.9721,109.49188 134.81159,205.78578 234.09377,276.93168 99.63734,71.8285 217.05991,118.9619 338.88867,135.0175 113.31746,15.1735 230.11688,4.2592 338.45899,-32.3066 90.85278,-30.4458 175.6668,-78.6636 248.423826,-141.0156 75.356534,-64.3951 138.017394,-143.72727 182.408204,-232.3926 25.48243,-50.65897 45.05996,-104.25103 58.58594,-159.32422 -5.26325,-48.0503 -8.67153,-99.78898 -12.65039,-151.22852 -6.43524,-83.19609 -14.55262,-165.49852 -30.26953,-221.8164 -7.85846,-28.15894 -17.87285,-49.30165 -26.50586,-60.16407 -8.63301,-10.86241 -11.82097,-12.20358 -20.61914,-12.42382 z"
         transform="scale(0.26458333)" />
      <path
         id="path10540"
         style="opacity:0.34202;fill:#ffffff;fill-rule:evenodd;stroke-width:4.7009"
         d="m -454.00586,-186.73242 c -6.57054,-0.0365 -13.14325,0.0115 -19.71289,0.14062 -126.13478,3.37793 -251.61197,37.96921 -360.67383,101.673831 -124.58298,72.693262 -227.97842,181.683536 -292.58202,310.769529 -33.0728,65.82856 -56.3951,136.54977 -69.0527,209.11914 5.55,-6.60767 11.5755,-12.81402 18.2324,-18.41015 31.8448,-26.30627 77.0515,-35.23498 116.5312,-23.17383 17.0827,5.15372 32.7645,14.61177 45.4492,27.13867 17.86191,17.0293 30.91965,38.12061 41.35747,60.37695 4.19681,-26.96151 10.3971,-53.60848 18.85937,-79.60546 16.22363,-49.79169 40.35086,-97.51176 70.6211,-140.29102 42.79506,-60.66565 98.55478,-112.56159 162.93945,-149.74805 79.778,-46.330021 171.52851,-71.101753 263.36328,-72.724607 159.17245,-0.219137 317.07289,76.087717 414.939455,202.126957 38.930082,50.05659 68.188114,107.2821 86.841797,167.81054 4.189113,-26.47475 9.397619,-52.91332 18.103516,-78.30859 8.616548,-24.62134 20.863619,-48.65218 39.671872,-67.07617 16.94731,-16.42312 39.36014,-27.19139 62.88867,-29.56641 19.27495,-2.51308 39.77314,-0.0446 56.9629,9.26563 C 214.8241,230.26512 208.64548,217.87095 202.0293,205.70312 141.24861,93.709245 51.446685,-2.342726 -56.207031,-70.529297 -157.717,-135.08133 -275.10966,-174.13 -394.94727,-184.0918 c -19.64194,-1.66687 -39.34698,-2.5312 -59.05859,-2.64062 z"
         transform="scale(0.26458333)" />
      <rect
         style="opacity:1;fill:#00ff00;fill-opacity:1;stroke:none;stroke-width:25;stroke-linecap:round;stroke-linejoin:round;stroke-miterlimit:4;stroke-dasharray:none;stroke-opacity:1"
         id="rect10922"
         width="52.688587"
         height="14.476735"
         x="-83.998741"
         y="-28.722801"
         ry="7.2383676"
         transform="rotate(-17.96269)"
         inkscape:transform-center-x="-54.215753"
         inkscape:transform-center-y="12.98124" />
      <rect
         style="opacity:1;fill:#00d7ff;fill-opacity:1;stroke:none;stroke-width:25;stroke-linecap:round;stroke-linejoin:round;stroke-miterlimit:4;stroke-dasharray:none;stroke-opacity:1"
         id="rect10924"
         width="52.688587"
         height="14.476735"
         x="-57.563644"
         y="72.964043"
         ry="7.2383676"
         transform="rotate(-17.96269)"
         inkscape:transform-center-x="-54.215756"
         inkscape:transform-center-y="12.981237" />
      <rect
         style="opacity:1;fill:#ffff00;fill-opacity:1;stroke:none;stroke-width:25;stroke-linecap:round;stroke-linejoin:round;stroke-miterlimit:4;stroke-dasharray:none;stroke-opacity:1"
         id="rect10926"
         width="52.688587"
         height="14.476735"
         x="-13.539652"
         y="-5.879972"
         ry="7.2383676"
         transform="rotate(-17.96269)"
         inkscape:transform-center-x="-54.215756"
         inkscape:transform-center-y="12.981237" />
      <rect
         style="opacity:1;fill:#ffff00;fill-opacity:1;stroke:none;stroke-width:25;stroke-linecap:round;stroke-linejoin:round;stroke-miterlimit:4;stroke-dasharray:none;stroke-opacity:1"
         id="rect10928"
         width="52.688587"
         height="14.476735"
         x="-178.75073"
         y="-65.182579"
         ry="7.2383676"
         transform="rotate(-17.96269)"
         inkscape:transform-center-x="-54.21575"
         inkscape:transform-center-y="12.981235" />
      <rect
         style="opacity:1;fill:#00ff00;fill-opacity:1;stroke:none;stroke-width:25;stroke-linecap:round;stroke-linejoin:round;stroke-miterlimit:4;stroke-dasharray:none;stroke-opacity:1"
         id="rect10930"
         width="52.688587"
         height="14.476735"
         x="-317.57541"
         y="-65.917336"
         ry="7.2383676"
         transform="rotate(-17.96269)"
         inkscape:transform-center-x="-54.21575"
         inkscape:transform-center-y="12.98124" />
      <rect
         style="opacity:1;fill:#00d7ff;fill-opacity:1;stroke:none;stroke-width:25;stroke-linecap:round;stroke-linejoin:round;stroke-miterlimit:4;stroke-dasharray:none;stroke-opacity:1"
         id="rect10932"
         width="52.688587"
         height="14.476735"
         x="-370.86993"
         y="-27.807104"
         ry="7.2383676"
         transform="rotate(-17.96269)"
         inkscape:transform-center-x="-54.215756"
         inkscape:transform-center-y="12.981237" />
      <rect
         style="opacity:1;fill:#ffff00;fill-opacity:1;stroke:none;stroke-width:25;stroke-linecap:round;stroke-linejoin:round;stroke-miterlimit:4;stroke-dasharray:none;stroke-opacity:1"
         id="rect10934"
         width="52.688587"
         height="14.476735"
         x="-284.49817"
         y="41.52417"
         ry="7.2383676"
         transform="rotate(-17.96269)"
         inkscape:transform-center-x="-54.215756"
         inkscape:transform-center-y="12.981237" />
      <rect
         style="opacity:1;fill:#ffff00;fill-opacity:1;stroke:none;stroke-width:25;stroke-linecap:round;stroke-linejoin:round;stroke-miterlimit:4;stroke-dasharray:none;stroke-opacity:1"
         id="rect10936"
         width="52.688587"
         height="14.476735"
         x="24.078176"
         y="167.084"
         ry="7.2383676"
         transform="rotate(-17.96269)"
         inkscape:transform-center-x="-54.215756"
         inkscape:transform-center-y="12.981237" />
      <rect
         style="opacity:1;fill:#00ff00;fill-opacity:1;stroke:none;stroke-width:25;stroke-linecap:round;stroke-linejoin:round;stroke-miterlimit:4;stroke-dasharray:none;stroke-opacity:1"
         id="rect10938"
         width="52.688587"
         height="14.476735"
         x="83.090927"
         y="10.685655"
         ry="7.2383676"
         transform="rotate(30.875785)"
         inkscape:transform-center-x="-25.910932"
         inkscape:transform-center-y="49.360758" />
      <rect
         style="opacity:1;fill:#00ff00;fill-opacity:1;stroke:none;stroke-width:25;stroke-linecap:round;stroke-linejoin:round;stroke-miterlimit:4;stroke-dasharray:none;stroke-opacity:1"
         id="rect10940"
         width="52.688587"
         height="14.476735"
         x="-28.753542"
         y="45.041515"
         ry="7.2383676"
         transform="rotate(30.875785)"
         inkscape:transform-center-x="-25.910932"
         inkscape:transform-center-y="49.360758" />
      <rect
         style="opacity:1;fill:#00ff00;fill-opacity:1;stroke:none;stroke-width:25;stroke-linecap:round;stroke-linejoin:round;stroke-miterlimit:4;stroke-dasharray:none;stroke-opacity:1"
         id="rect10942"
         width="52.688587"
         height="14.476735"
         x="-124.9465"
         y="100.42427"
         ry="7.2383676"
         transform="rotate(30.875785)"
         inkscape:transform-center-x="-25.910932"
         inkscape:transform-center-y="49.360758" />
      <rect
         style="opacity:1;fill:#00d7ff;fill-opacity:1;stroke:none;stroke-width:25;stroke-linecap:round;stroke-linejoin:round;stroke-miterlimit:4;stroke-dasharray:none;stroke-opacity:1"
         id="rect10944"
         width="52.688587"
         height="14.476735"
         x="12.013053"
         y="60.168015"
         ry="7.2383676"
         transform="rotate(154.44347)"
         inkscape:transform-center-x="55.455749"
         inkscape:transform-center-y="-5.7027817" />
      <rect
         style="opacity:1;fill:#00d7ff;fill-opacity:1;stroke:none;stroke-width:25;stroke-linecap:round;stroke-linejoin:round;stroke-miterlimit:4;stroke-dasharray:none;stroke-opacity:1"
         id="rect10946"
         width="52.688587"
         height="14.476735"
         x="-185.95885"
         y="167.50671"
         ry="7.2383676"
         transform="rotate(30.875785)"
         inkscape:transform-center-x="-25.910932"
         inkscape:transform-center-y="49.360758" />
      <rect
         style="opacity:1;fill:#00ff00;fill-opacity:1;stroke:none;stroke-width:25;stroke-linecap:round;stroke-linejoin:round;stroke-miterlimit:4;stroke-dasharray:none;stroke-opacity:1"
         id="rect10948"
         width="52.688587"
         height="14.476735"
         x="-214.75325"
         y="57.256306"
         ry="7.2383676"
         transform="rotate(30.875785)"
         inkscape:transform-center-x="-25.910936"
         inkscape:transform-center-y="49.360757" />
      <rect
         style="opacity:1;fill:#ffff00;fill-opacity:1;stroke:none;stroke-width:25;stroke-linecap:round;stroke-linejoin:round;stroke-miterlimit:4;stroke-dasharray:none;stroke-opacity:1"
         id="rect10950"
         width="52.688587"
         height="14.476735"
         x="-253.30148"
         y="110.68949"
         ry="7.2383676"
         transform="rotate(30.875785)"
         inkscape:transform-center-x="-25.91092"
         inkscape:transform-center-y="49.360751" />
      <rect
         style="opacity:1;fill:#00ff00;fill-opacity:1;stroke:none;stroke-width:25;stroke-linecap:round;stroke-linejoin:round;stroke-miterlimit:4;stroke-dasharray:none;stroke-opacity:1"
         id="rect10706"
         width="52.688587"
         height="14.476735"
         x="18.500864"
         y="122.7701"
         ry="7.2383676"
         transform="rotate(129.48703)"
         inkscape:transform-center-x="52.68395"
         inkscape:transform-center-y="18.228075" />
    </g>
  </g>
</svg>
